<svg width="14" height="10" viewBox="0 0 14 10" fill="none" xmlns="http://www.w3.org/2000/svg">
<path fill-rule="evenodd" clip-rule="evenodd" d="M12.7826 10H1.21739C0.545087 10 0 9.47324 0 8.82353V1.17647C0 0.526765 0.545087 0 1.21739 0H12.7826C13.4549 0 14 0.526765 14 1.17647V8.82353C14 9.47324 13.4549 10 12.7826 10ZM13.3913 1.17647C13.3913 0.851765 13.1186 0.588235 12.7826 0.588235H1.21739C0.881391 0.588235 0.608696 0.851765 0.608696 1.17647V8.82353C0.608696 9.14824 0.881391 9.41177 1.21739 9.41177H12.7826C13.1186 9.41177 13.3913 9.14824 13.3913 8.82353V1.17647ZM12.2756 8.15147L10.3478 6.28853L9.24639 7.35294L10.2611 8.33353C10.377 8.44559 10.377 8.62735 10.2611 8.73971C10.1448 8.85176 9.95674 8.85176 9.84078 8.73971L5.47826 4.52382L1.72443 8.15147C1.60848 8.26353 1.42039 8.26353 1.30413 8.15147C1.18817 8.03912 1.18817 7.85735 1.30413 7.74529L5.23174 3.94971C5.24148 3.93559 5.24787 3.92 5.26065 3.90735C5.32061 3.84941 5.39974 3.82294 5.47826 3.82471C5.55678 3.82294 5.63591 3.84941 5.69587 3.90735C5.70865 3.92 5.71474 3.93559 5.72478 3.94971L8.82609 6.94676L10.1013 5.71441C10.1113 5.70059 10.1174 5.68471 10.1302 5.67206C10.1902 5.61441 10.2693 5.58765 10.3478 5.58941C10.4263 5.58765 10.5055 5.61441 10.5654 5.67206C10.5782 5.68471 10.5843 5.70059 10.5943 5.71441L12.6959 7.74529C12.8118 7.85735 12.8118 8.03912 12.6959 8.15147C12.5796 8.26353 12.3915 8.26353 12.2756 8.15147ZM8.52174 3.52941C7.84943 3.52941 7.30435 3.00265 7.30435 2.35294C7.30435 1.70324 7.84943 1.17647 8.52174 1.17647C9.19404 1.17647 9.73913 1.70324 9.73913 2.35294C9.73913 3.00265 9.19404 3.52941 8.52174 3.52941ZM8.52174 1.76471C8.18574 1.76471 7.91304 2.02824 7.91304 2.35294C7.91304 2.67765 8.18574 2.94118 8.52174 2.94118C8.85774 2.94118 9.13043 2.67765 9.13043 2.35294C9.13043 2.02824 8.85774 1.76471 8.52174 1.76471Z" fill="black"/>
</svg>
