<svg width="18" height="19" viewBox="0 0 18 19" fill="none" xmlns="http://www.w3.org/2000/svg">
<path d="M17 7.82187C16.4 7.82187 16 8.22187 16 8.82187V13.9219C16 15.6219 14.7 16.9219 13 16.9219H5C3.3 16.9219 2 15.6219 2 13.9219V5.92188C2 4.22187 3.3 2.92188 5 2.92188H10C10.6 2.92188 11 2.52188 11 1.92188C11 1.32187 10.6 0.921875 10 0.921875H5C2.2 0.921875 0 3.12188 0 5.92188V13.9219C0 16.7219 2.2 18.9219 5 18.9219H13C15.8 18.9219 18 16.7219 18 13.9219V8.82187C18 8.32187 17.6 7.82187 17 7.82187Z" fill="white"/>
</svg>
