<svg width="28" height="31" viewBox="0 0 28 31" fill="none" xmlns="http://www.w3.org/2000/svg">
<path fill-rule="evenodd" clip-rule="evenodd" d="M16.7867 28.1438C16.7874 28.1572 16.7909 28.1692 16.7909 28.1833C16.7909 29.7386 15.5414 31 14 31C12.4586 31 11.2091 29.7386 11.2091 28.1833C11.2091 28.1699 11.2126 28.1579 11.2126 28.1438C2.2869 27.8972 0 26.4335 0 24.6598C0 24.1045 0.2408 23.5816 0.8267 23.1136C5.0463 18.3815 6.3 19.6916 6.3 12.6819C6.3 8.00828 6.4897 3.72366 12.0806 2.95201C11.97 2.69409 11.907 2.4108 11.907 2.11271C11.907 0.945715 12.8443 0 14 0C15.1557 0 16.093 0.945715 16.093 2.11271C16.093 2.4108 16.03 2.69409 15.9194 2.95201C21.5103 3.72366 21.7 8.00828 21.7 12.6819C21.7 19.7127 22.96 18.371 27.2104 23.1538C27.7662 23.6119 28 24.12 28 24.6598C28 26.4321 25.6529 27.8958 16.7867 28.1438ZM14 29.5927C14.7714 29.5927 15.3958 28.962 15.3958 28.1847C15.3958 28.1805 15.3944 28.1762 15.3944 28.172C14.9387 28.1784 14.4872 28.1854 14 28.1854C13.5128 28.1854 13.062 28.1784 12.6056 28.172C12.6056 28.1762 12.6042 28.1805 12.6042 28.1847C12.6042 28.962 13.2286 29.5927 14 29.5927ZM14 1.4073C13.6143 1.4073 13.3028 1.7223 13.3028 2.1113C13.3028 2.5003 13.6143 2.816 14 2.816C14.3857 2.816 14.6979 2.5003 14.6979 2.1113C14.6979 1.7223 14.3857 1.4073 14 1.4073ZM26.3235 24.2447C26.3235 24.2447 25.2581 23.0368 23.5109 21.4371C21.1253 19.249 20.3 18.2117 20.3 12.6819C20.3 7.28102 20.0074 4.22541 14 4.22541C7.9926 4.22541 7.7 7.28102 7.7 12.6819C7.7 18.2124 6.874 19.2504 4.487 21.4393C2.7741 23.01 1.6968 24.2172 1.6968 24.2172C1.4 24.4547 1.4 24.5928 1.4 24.6598C1.4 24.7464 1.5435 26.776 14 26.776C26.4565 26.776 26.6 24.7464 26.6 24.6598C26.6 24.6034 26.6 24.4716 26.3235 24.2447Z" fill="#34BF49"/>
</svg>
