<svg width="14" height="11" viewBox="0 0 14 11" fill="none" xmlns="http://www.w3.org/2000/svg">
<path fill-rule="evenodd" clip-rule="evenodd" d="M12.7826 11H1.21739C0.545087 11 0 10.4206 0 9.70588V2.58824C0 1.87356 0.545087 1.29412 1.21739 1.29412H1.52174C1.52174 0.936941 1.79443 0.647059 2.13043 0.647059H2.73913C3.07513 0.647059 3.34783 0.936941 3.34783 1.29412H3.95652C3.95652 1.29412 4.29891 1.25368 4.56522 0.970588L5.17391 0.323529C5.17391 0.323529 5.41161 0 5.78261 0H8.21739C8.6167 0 8.82609 0.323529 8.82609 0.323529L9.43478 0.970588C9.70109 1.25368 10.0435 1.29412 10.0435 1.29412H12.7826C13.4549 1.29412 14 1.87356 14 2.58824V9.70588C14 10.4206 13.4549 11 12.7826 11ZM13.3913 2.58824C13.3913 2.23106 13.1186 1.94118 12.7826 1.94118L9.97622 1.93697C9.88339 1.92629 9.4013 1.84994 9.00443 1.42806L8.35617 0.738941L8.32452 0.690088C8.32452 0.690088 8.27704 0.647059 8.21739 0.647059H5.78261C5.73604 0.647059 5.66848 0.704647 5.65356 0.721794L5.63074 0.752853L4.99556 1.42774C4.59839 1.84994 4.1163 1.92597 4.02378 1.93665L2.76043 1.93859C2.75313 1.93924 2.74613 1.94118 2.73913 1.94118H2.13043C2.12617 1.94118 2.12252 1.93988 2.11826 1.93988L1.21739 1.94118C0.881391 1.94118 0.608696 2.23106 0.608696 2.58824V9.70588C0.608696 10.0631 0.881391 10.3529 1.21739 10.3529H12.7826C13.1186 10.3529 13.3913 10.0631 13.3913 9.70588V2.58824ZM7 9.70588C5.15109 9.70588 3.65217 8.1125 3.65217 6.14706C3.65217 4.18162 5.15109 2.58824 7 2.58824C8.84891 2.58824 10.3478 4.18162 10.3478 6.14706C10.3478 8.1125 8.84891 9.70588 7 9.70588ZM7 3.23529C5.48709 3.23529 4.26087 4.53879 4.26087 6.14706C4.26087 7.75532 5.48709 9.05882 7 9.05882C8.51291 9.05882 9.73913 7.75532 9.73913 6.14706C9.73913 4.53879 8.51291 3.23529 7 3.23529ZM7 7.76471C6.15939 7.76471 5.47826 7.04065 5.47826 6.14706C5.47826 5.25347 6.15939 4.52941 7 4.52941C7.84061 4.52941 8.52174 5.25347 8.52174 6.14706C8.52174 7.04065 7.84061 7.76471 7 7.76471ZM7 5.17647C6.496 5.17647 6.08696 5.61129 6.08696 6.14706C6.08696 6.68315 6.496 7.11765 7 7.11765C7.5043 7.11765 7.91304 6.68315 7.91304 6.14706C7.91304 5.61129 7.5043 5.17647 7 5.17647ZM2.73913 3.88235H1.52174C1.35343 3.88235 1.21739 3.73774 1.21739 3.55882V2.91176C1.21739 2.73318 1.35343 2.58824 1.52174 2.58824H2.73913C2.90743 2.58824 3.04348 2.73318 3.04348 2.91176V3.55882C3.04348 3.73774 2.90743 3.88235 2.73913 3.88235Z" fill="black"/>
</svg>
