 <svg
                              width="24"
                              height="24"
                              viewBox="0 0 30 30"
                              fill="none"
                              xmlns="http://www.w3.org/2000/svg"
                            >
                              <path
                                d="M28.5792 1.30779C26.8424 -0.435931 23.8424 -0.435931 21.9476 1.30779L9.15815 13.8309C8.05289 14.9406 7.26341 16.3672 6.94763 17.9524L6.31605 21.4399C6.15815 21.9155 6.31605 22.5495 6.78973 22.8666C7.10552 23.1836 7.42131 23.3421 7.89499 23.3421C8.05289 23.3421 8.05289 23.3421 8.21078 23.3421L11.6845 22.7081C13.2634 22.391 14.6845 21.5984 15.7897 20.4888L28.5792 7.80713C29.5266 7.01453 30.0003 5.74637 30.0003 4.4782C30.0003 3.21004 29.5266 2.1004 28.5792 1.30779ZM13.7371 18.111C13.1055 18.745 12.1582 19.2206 11.2108 19.3791L9.94763 19.6962L10.2634 18.5865C10.4213 17.6354 10.895 16.8428 11.6845 16.0502L21.4739 6.38045L23.6845 8.44122L13.7371 18.111ZM26.3687 5.58785L25.7371 6.22193L23.5266 4.16116L24.1581 3.52708C24.4739 3.21004 24.9476 3.05152 25.2634 3.05152C25.7371 3.05152 26.0529 3.21004 26.3687 3.52708C26.6845 3.84412 26.8424 4.16116 26.8424 4.4782C26.8424 4.79524 26.8424 5.27081 26.3687 5.58785Z"
                                fill="black"
                              />
                              <path
                                d="M26.8421 12.4067C25.8947 12.4067 25.2632 13.0407 25.2632 13.9919V22.0764C25.2632 24.7713 23.2105 26.832 20.5263 26.832H7.89474C5.21053 26.832 3.15789 24.7713 3.15789 22.0764V9.39477C3.15789 6.69993 5.21053 4.63916 7.89474 4.63916H15.7895C16.7368 4.63916 17.3684 4.00508 17.3684 3.05395C17.3684 2.10283 16.7368 1.46875 15.7895 1.46875H7.89474C3.47368 1.46875 0 4.9562 0 9.39477V22.0764C0 26.515 3.47368 30.0024 7.89474 30.0024H20.5263C24.9474 30.0024 28.4211 26.515 28.4211 22.0764V13.9919C28.4211 13.1993 27.7895 12.4067 26.8421 12.4067Z"
                                fill="black"
                              />
                            </svg>
