<svg width="20" height="20" viewBox="0 0 20 20" fill="none" xmlns="http://www.w3.org/2000/svg">
<path d="M18.75 0H1.25C0.918479 0 0.600537 0.185924 0.366116 0.51687C0.131696 0.847817 0 1.29668 0 1.76471L0 18.2353C0 18.7033 0.131696 19.1522 0.366116 19.4831C0.600537 19.8141 0.918479 20 1.25 20H18.75C19.0815 20 19.3995 19.8141 19.6339 19.4831C19.8683 19.1522 20 18.7033 20 18.2353V1.76471C20 1.29668 19.8683 0.847817 19.6339 0.51687C19.3995 0.185924 19.0815 0 18.75 0ZM18.4833 1.17647L10 10.4353L1.51667 1.17647H18.4833ZM0.833333 17.9941V1.91765L7.25417 8.92353L0.833333 17.9941ZM1.42083 18.8235L7.91667 9.65294L9.74167 11.6471C9.81452 11.7262 9.90389 11.7692 9.99583 11.7692C10.0878 11.7692 10.1771 11.7262 10.25 11.6471L12.0833 9.65294L18.5792 18.8235H1.42083ZM19.1667 17.9941L12.7458 8.92353L19.1667 1.91765V17.9941Z" fill="black"/>
</svg>
