<svg width="30" height="30" viewBox="0 0 30 30" fill="none" xmlns="http://www.w3.org/2000/svg">
<circle cx="14.8786" cy="14.6667" r="14.6667" fill="#00B8F0" fill-opacity="0.12"/>
<path d="M8.22998 11.2329H12.2831L12.2833 7.17969H8.23009L8.22998 11.2329ZM9.5066 8.45633H11.0066V9.95635H9.5066V8.45633Z" fill="#007AFF"/>
<path d="M13.8311 7.17969H21.5225V8.4563H13.8311V7.17969Z" fill="#007AFF"/>
<path d="M13.8311 9.95312H19.9746V11.2297H13.8311V9.95312Z" fill="#007AFF"/>
<path d="M8.22998 16.7875H12.2831L12.2833 12.7344H8.23009L8.22998 16.7875ZM9.5066 14.0109H11.0066V15.511H9.5066V14.0109Z" fill="#007AFF"/>
<path d="M13.8311 12.7344H21.5225V14.011H13.8311V12.7344Z" fill="#007AFF"/>
<path d="M13.8311 15.5078H19.9746V16.7844H13.8311V15.5078Z" fill="#007AFF"/>
<path d="M8.22998 22.3422H12.2831L12.2833 18.2891H8.23009L8.22998 22.3422ZM9.5066 19.5656H11.0066V21.0656H9.5066V19.5656Z" fill="#007AFF"/>
<path d="M13.8311 18.2891H21.5225V19.5657H13.8311V18.2891Z" fill="#007AFF"/>
<path d="M13.8311 21.0625H19.9746V22.3391H13.8311V21.0625Z" fill="#007AFF"/>
</svg>
