<svg width="115" height="45" viewBox="0 0 115 45" fill="none" xmlns="http://www.w3.org/2000/svg">
<g filter="url(#filter0_d_243_558)">
<circle cx="22.5" cy="22.5" r="22.5" fill="#FCF2D9"/>
</g>
<g filter="url(#filter1_d_243_558)">
<circle cx="92.5" cy="22.5" r="22.5" fill="#FCF2D9"/>
</g>
<path d="M28.1336 22C28.7155 27.3755 31 29 31 29H13C13 29 16 26.8667 16 19.4C16 17.7026 16.6321 16.0748 17.7574 14.8745C18.8826 13.6743 20.4087 13 22 13C22.3373 13 22.6717 13.0303 23 13.0895" stroke="black" stroke-width="1.5" stroke-linecap="round" stroke-linejoin="round"/>
<path d="M31 17C32.6569 17 34 15.6568 34 14C34 12.3432 32.6569 11 31 11C29.3431 11 28 12.3432 28 14C28 15.6568 29.3431 17 31 17Z" stroke="#D41B1B" stroke-width="6" stroke-linecap="round" stroke-linejoin="round"/>
<path d="M23.73 32C23.5542 32.3031 23.3019 32.5547 22.9982 32.7295C22.6946 32.9044 22.3504 32.9965 22 32.9965C21.6496 32.9965 21.3054 32.9044 21.0018 32.7295C20.6982 32.5547 20.4458 32.3031 20.27 32" stroke="black" stroke-width="1.5" stroke-linecap="round" stroke-linejoin="round"/>
<defs>
<filter id="filter0_d_243_558" x="-4" y="-4" width="61" height="61" filterUnits="userSpaceOnUse" color-interpolation-filters="sRGB">
<feFlood flood-opacity="0" result="BackgroundImageFix"/>
<feColorMatrix in="SourceAlpha" type="matrix" values="0 0 0 0 0 0 0 0 0 0 0 0 0 0 0 0 0 0 127 0" result="hardAlpha"/>
<feOffset dx="4" dy="4"/>
<feGaussianBlur stdDeviation="4"/>
<feComposite in2="hardAlpha" operator="out"/>
<feColorMatrix type="matrix" values="0 0 0 0 0 0 0 0 0 0 0 0 0 0 0 0 0 0 0.1 0"/>
<feBlend mode="normal" in2="BackgroundImageFix" result="effect1_dropShadow_243_558"/>
<feBlend mode="normal" in="SourceGraphic" in2="effect1_dropShadow_243_558" result="shape"/>
</filter>
<filter id="filter1_d_243_558" x="66" y="-4" width="61" height="61" filterUnits="userSpaceOnUse" color-interpolation-filters="sRGB">
<feFlood flood-opacity="0" result="BackgroundImageFix"/>
<feColorMatrix in="SourceAlpha" type="matrix" values="0 0 0 0 0 0 0 0 0 0 0 0 0 0 0 0 0 0 127 0" result="hardAlpha"/>
<feOffset dx="4" dy="4"/>
<feGaussianBlur stdDeviation="4"/>
<feComposite in2="hardAlpha" operator="out"/>
<feColorMatrix type="matrix" values="0 0 0 0 0 0 0 0 0 0 0 0 0 0 0 0 0 0 0.1 0"/>
<feBlend mode="normal" in2="BackgroundImageFix" result="effect1_dropShadow_243_558"/>
<feBlend mode="normal" in="SourceGraphic" in2="effect1_dropShadow_243_558" result="shape"/>
</filter>
</defs>
</svg>
